<svg xmlns="http://www.w3.org/2000/svg" viewBox="0 0 800 560" width="800" height="560" style="background:#ffffff">
  <defs>
    <marker id="arr" markerWidth="10" markerHeight="7" refX="9" refY="3.5" orient="auto">
      <polygon points="0 0, 10 3.5, 0 7" fill="#1e1e1e"/>
    </marker>
  </defs>

  <!-- Title -->
  <text x="400" y="30" font-family="Virgil, 'Segoe UI Emoji', cursive" font-size="20" font-weight="bold" text-anchor="middle" fill="#1e1e1e">Architecture Drift Timeline</text>

  <!-- ===== PANEL 1: LAUNCH DAY ===== -->
  <rect x="15" y="48" width="238" height="380" rx="6" fill="#ffffff" stroke="#1e1e1e" stroke-width="2"/>
  <text x="134" y="70" font-family="Virgil, 'Segoe UI Emoji', cursive" font-size="15" font-weight="bold" text-anchor="middle" fill="#1e1e1e">Launch Day</text>
  <!-- webclient -->
  <rect x="57" y="86" width="78" height="28" rx="4" fill="#ffffff" stroke="#1e1e1e" stroke-width="2"/>
  <text x="96" y="105" font-family="Virgil, 'Segoe UI Emoji', cursive" font-size="12" text-anchor="middle" fill="#1e1e1e">webclient</text>
  <line x1="96" y1="114" x2="96" y2="130" stroke="#1e1e1e" stroke-width="2" marker-end="url(#arr)"/>
  <!-- service -->
  <rect x="57" y="130" width="78" height="28" rx="4" fill="#ffffff" stroke="#1e1e1e" stroke-width="2"/>
  <text x="96" y="149" font-family="Virgil, 'Segoe UI Emoji', cursive" font-size="12" text-anchor="middle" fill="#1e1e1e">service</text>
  <line x1="96" y1="158" x2="96" y2="174" stroke="#1e1e1e" stroke-width="2" marker-end="url(#arr)"/>
  <!-- database -->
  <rect x="57" y="174" width="78" height="28" rx="4" fill="#ffffff" stroke="#1e1e1e" stroke-width="2"/>
  <text x="96" y="193" font-family="Virgil, 'Segoe UI Emoji', cursive" font-size="12" text-anchor="middle" fill="#1e1e1e">database</text>
  <!-- auth-ldap (side) -->
  <rect x="155" y="130" width="72" height="28" rx="4" fill="#ffffff" stroke="#1e1e1e" stroke-width="2"/>
  <text x="191" y="149" font-family="Virgil, 'Segoe UI Emoji', cursive" font-size="11" text-anchor="middle" fill="#1e1e1e">auth-ldap</text>
  <line x1="135" y1="144" x2="155" y2="144" stroke="#1e1e1e" stroke-width="2" marker-end="url(#arr)"/>
  <text x="134" y="238" font-family="Virgil, 'Segoe UI Emoji', cursive" font-size="11" text-anchor="middle" fill="#555555" font-style="italic">diagram matches reality</text>

  <!-- ===== PANEL 2: 12 MONTHS LATER ===== -->
  <rect x="278" y="48" width="244" height="380" rx="6" fill="#ffffff" stroke="#1e1e1e" stroke-width="2"/>
  <text x="400" y="70" font-family="Virgil, 'Segoe UI Emoji', cursive" font-size="15" font-weight="bold" text-anchor="middle" fill="#1e1e1e">12 Months Later</text>
  <!-- Diagram sub-panel (dashed) -->
  <rect x="285" y="82" width="104" height="175" rx="4" fill="#ffffff" stroke="#1e1e1e" stroke-width="2" stroke-dasharray="6,4"/>
  <text x="337" y="97" font-family="Virgil, 'Segoe UI Emoji', cursive" font-size="11" font-weight="bold" text-anchor="middle" fill="#1e1e1e">DIAGRAM</text>
  <rect x="297" y="106" width="68" height="22" rx="3" fill="#ffffff" stroke="#1e1e1e" stroke-width="1.5" stroke-dasharray="5,3"/>
  <text x="331" y="121" font-family="Virgil, 'Segoe UI Emoji', cursive" font-size="10" text-anchor="middle" fill="#1e1e1e">webclient</text>
  <line x1="331" y1="128" x2="331" y2="140" stroke="#1e1e1e" stroke-width="1.5" marker-end="url(#arr)"/>
  <rect x="297" y="140" width="68" height="22" rx="3" fill="#ffffff" stroke="#1e1e1e" stroke-width="1.5" stroke-dasharray="5,3"/>
  <text x="331" y="155" font-family="Virgil, 'Segoe UI Emoji', cursive" font-size="10" text-anchor="middle" fill="#1e1e1e">service</text>
  <line x1="331" y1="162" x2="331" y2="174" stroke="#1e1e1e" stroke-width="1.5" marker-end="url(#arr)"/>
  <rect x="297" y="174" width="68" height="22" rx="3" fill="#ffffff" stroke="#1e1e1e" stroke-width="1.5" stroke-dasharray="5,3"/>
  <text x="331" y="189" font-family="Virgil, 'Segoe UI Emoji', cursive" font-size="10" text-anchor="middle" fill="#1e1e1e">database</text>
  <text x="337" y="240" font-family="Virgil, 'Segoe UI Emoji', cursive" font-size="9" text-anchor="middle" fill="#888888">(unchanged)</text>
  <!-- Reality sub-panel (solid) -->
  <rect x="400" y="82" width="114" height="175" rx="4" fill="#ffffff" stroke="#1e1e1e" stroke-width="2.5"/>
  <text x="457" y="97" font-family="Virgil, 'Segoe UI Emoji', cursive" font-size="11" font-weight="bold" text-anchor="middle" fill="#1e1e1e">REALITY</text>
  <rect x="412" y="106" width="66" height="22" rx="3" fill="#ffffff" stroke="#1e1e1e" stroke-width="1.5"/>
  <text x="445" y="121" font-family="Virgil, 'Segoe UI Emoji', cursive" font-size="10" text-anchor="middle" fill="#1e1e1e">webclient</text>
  <line x1="445" y1="128" x2="445" y2="140" stroke="#1e1e1e" stroke-width="1.5" marker-end="url(#arr)"/>
  <rect x="412" y="140" width="66" height="22" rx="3" fill="#ffffff" stroke="#1e1e1e" stroke-width="1.5"/>
  <text x="445" y="155" font-family="Virgil, 'Segoe UI Emoji', cursive" font-size="10" text-anchor="middle" fill="#1e1e1e">service</text>
  <line x1="445" y1="162" x2="445" y2="174" stroke="#1e1e1e" stroke-width="1.5" marker-end="url(#arr)"/>
  <rect x="412" y="174" width="66" height="22" rx="3" fill="#ffffff" stroke="#1e1e1e" stroke-width="1.5"/>
  <text x="445" y="189" font-family="Virgil, 'Segoe UI Emoji', cursive" font-size="10" text-anchor="middle" fill="#1e1e1e">database</text>
  <!-- NEW: cache + queue -->
  <rect x="412" y="200" width="30" height="20" rx="3" fill="#e8e8e8" stroke="#1e1e1e" stroke-width="2"/>
  <text x="427" y="214" font-family="Virgil, 'Segoe UI Emoji', cursive" font-size="9" text-anchor="middle" fill="#1e1e1e">cache</text>
  <rect x="448" y="200" width="30" height="20" rx="3" fill="#e8e8e8" stroke="#1e1e1e" stroke-width="2"/>
  <text x="463" y="214" font-family="Virgil, 'Segoe UI Emoji', cursive" font-size="9" text-anchor="middle" fill="#1e1e1e">queue</text>
  <text x="445" y="240" font-family="Virgil, 'Segoe UI Emoji', cursive" font-size="9" text-anchor="middle" fill="#1e1e1e">+2 new</text>
  <text x="400" y="278" font-family="Virgil, 'Segoe UI Emoji', cursive" font-size="10" text-anchor="middle" fill="#555555" font-style="italic">cache &amp; queue added — diagram not updated</text>

  <!-- ===== PANEL 3: TODAY ===== -->
  <rect x="547" y="48" width="238" height="380" rx="6" fill="#ffffff" stroke="#1e1e1e" stroke-width="2"/>
  <text x="666" y="70" font-family="Virgil, 'Segoe UI Emoji', cursive" font-size="15" font-weight="bold" text-anchor="middle" fill="#1e1e1e">Today</text>
  <!-- Diagram sub-panel (dashed) -->
  <rect x="554" y="82" width="98" height="165" rx="4" fill="#ffffff" stroke="#1e1e1e" stroke-width="2" stroke-dasharray="6,4"/>
  <text x="603" y="97" font-family="Virgil, 'Segoe UI Emoji', cursive" font-size="10" font-weight="bold" text-anchor="middle" fill="#1e1e1e">DIAGRAM</text>
  <rect x="563" y="104" width="64" height="20" rx="2" fill="#ffffff" stroke="#1e1e1e" stroke-width="1.5" stroke-dasharray="5,3"/>
  <text x="595" y="118" font-family="Virgil, 'Segoe UI Emoji', cursive" font-size="9" text-anchor="middle" fill="#1e1e1e">webclient</text>
  <rect x="563" y="130" width="64" height="20" rx="2" fill="#ffffff" stroke="#1e1e1e" stroke-width="1.5" stroke-dasharray="5,3"/>
  <text x="595" y="144" font-family="Virgil, 'Segoe UI Emoji', cursive" font-size="9" text-anchor="middle" fill="#1e1e1e">service</text>
  <rect x="563" y="156" width="64" height="20" rx="2" fill="#ffffff" stroke="#1e1e1e" stroke-width="1.5" stroke-dasharray="5,3"/>
  <text x="595" y="170" font-family="Virgil, 'Segoe UI Emoji', cursive" font-size="9" text-anchor="middle" fill="#1e1e1e">database</text>
  <text x="603" y="230" font-family="Virgil, 'Segoe UI Emoji', cursive" font-size="9" text-anchor="middle" fill="#999999">(still original)</text>
  <!-- Reality sub-panel (solid) -->
  <rect x="662" y="82" width="114" height="200" rx="4" fill="#ffffff" stroke="#1e1e1e" stroke-width="2.5"/>
  <text x="719" y="97" font-family="Virgil, 'Segoe UI Emoji', cursive" font-size="10" font-weight="bold" text-anchor="middle" fill="#1e1e1e">REALITY</text>
  <rect x="670" y="104" width="46" height="18" rx="2" fill="#ffffff" stroke="#1e1e1e" stroke-width="1.5"/>
  <text x="693" y="117" font-family="Virgil, 'Segoe UI Emoji', cursive" font-size="8" text-anchor="middle" fill="#1e1e1e">api-gw</text>
  <rect x="722" y="104" width="46" height="18" rx="2" fill="#ffffff" stroke="#1e1e1e" stroke-width="1.5"/>
  <text x="745" y="117" font-family="Virgil, 'Segoe UI Emoji', cursive" font-size="8" text-anchor="middle" fill="#1e1e1e">svc-a</text>
  <rect x="670" y="128" width="46" height="18" rx="2" fill="#ffffff" stroke="#1e1e1e" stroke-width="1.5"/>
  <text x="693" y="141" font-family="Virgil, 'Segoe UI Emoji', cursive" font-size="8" text-anchor="middle" fill="#1e1e1e">svc-b</text>
  <rect x="722" y="128" width="46" height="18" rx="2" fill="#ffffff" stroke="#1e1e1e" stroke-width="1.5"/>
  <text x="745" y="141" font-family="Virgil, 'Segoe UI Emoji', cursive" font-size="8" text-anchor="middle" fill="#1e1e1e">cache</text>
  <rect x="670" y="152" width="46" height="18" rx="2" fill="#ffffff" stroke="#1e1e1e" stroke-width="1.5"/>
  <text x="693" y="165" font-family="Virgil, 'Segoe UI Emoji', cursive" font-size="8" text-anchor="middle" fill="#1e1e1e">queue</text>
  <!-- deprecated box 1 (X mark) -->
  <rect x="670" y="176" width="44" height="18" rx="2" fill="#e0e0e0" stroke="#1e1e1e" stroke-width="1.5"/>
  <line x1="670" y1="176" x2="714" y2="194" stroke="#1e1e1e" stroke-width="1.2"/>
  <line x1="714" y1="176" x2="670" y2="194" stroke="#1e1e1e" stroke-width="1.2"/>
  <!-- deprecated box 2 (X mark) -->
  <rect x="720" y="176" width="44" height="18" rx="2" fill="#e0e0e0" stroke="#1e1e1e" stroke-width="1.5"/>
  <line x1="720" y1="176" x2="764" y2="194" stroke="#1e1e1e" stroke-width="1.2"/>
  <line x1="764" y1="176" x2="720" y2="194" stroke="#1e1e1e" stroke-width="1.2"/>
  <rect x="670" y="200" width="98" height="18" rx="2" fill="#ffffff" stroke="#1e1e1e" stroke-width="1.5"/>
  <text x="719" y="213" font-family="Virgil, 'Segoe UI Emoji', cursive" font-size="8" text-anchor="middle" fill="#1e1e1e">postgres-v2</text>
  <!-- 3am zigzag incident arrow -->
  <polyline points="672,240 682,232 694,244 706,230 718,242 730,228 742,238" stroke="#1e1e1e" stroke-width="2.5" fill="none"/>
  <line x1="742" y1="238" x2="755" y2="233" stroke="#1e1e1e" stroke-width="2" marker-end="url(#arr)"/>
  <text x="710" y="262" font-family="Virgil, 'Segoe UI Emoji', cursive" font-size="9" text-anchor="middle" fill="#1e1e1e">3am incident here</text>
  <text x="666" y="300" font-family="Virgil, 'Segoe UI Emoji', cursive" font-size="10" text-anchor="middle" fill="#555555" font-style="italic">diagram describes a system that no longer exists</text>

  <!-- TIME arrow -->
  <line x1="20" y1="466" x2="776" y2="466" stroke="#1e1e1e" stroke-width="3" marker-end="url(#arr)"/>
  <text x="135" y="458" font-family="Virgil, 'Segoe UI Emoji', cursive" font-size="12" text-anchor="middle" fill="#1e1e1e">Launch</text>
  <text x="400" y="458" font-family="Virgil, 'Segoe UI Emoji', cursive" font-size="12" text-anchor="middle" fill="#1e1e1e">M12</text>
  <text x="666" y="458" font-family="Virgil, 'Segoe UI Emoji', cursive" font-size="12" text-anchor="middle" fill="#1e1e1e">Today</text>
  <text x="400" y="490" font-family="Virgil, 'Segoe UI Emoji', cursive" font-size="14" font-weight="bold" text-anchor="middle" fill="#1e1e1e">TIME</text>

  <!-- Caption -->
  <text x="400" y="524" font-family="Virgil, 'Segoe UI Emoji', cursive" font-size="13" text-anchor="middle" fill="#757575">Architecture drift: the longer it grows, the harder it becomes to close.</text>
</svg>
