<svg xmlns="http://www.w3.org/2000/svg" viewBox="0 0 800 760" width="800" height="760" style="background:#ffffff">
  <defs>
    <marker id="arr" markerWidth="10" markerHeight="7" refX="9" refY="3.5" orient="auto">
      <polygon points="0 0, 10 3.5, 0 7" fill="#1e1e1e"/>
    </marker>
  </defs>
  <style>text { font-family: Inter, system-ui, sans-serif; fill: #1e1e1e; }</style>

  <!-- Title -->
  <text x="400" y="32" font-size="20" text-anchor="middle" font-weight="bold">The CALM CLI command taxonomy</text>

  <!-- Root node -->
  <rect x="290" y="48" width="220" height="54" rx="8" ry="8" fill="#ffffff" stroke="#1e1e1e" stroke-width="3"/>
  <text x="400" y="71" font-size="17" text-anchor="middle" font-weight="bold">calm</text>
  <text x="400" y="91" font-size="12" text-anchor="middle">npx @finos/calm-cli  ·  v1.45.0</text>

  <!-- Root to horizontal trunk -->
  <line x1="400" y1="102" x2="400" y2="126" stroke="#1e1e1e" stroke-width="2"/>
  <line x1="50" y1="126" x2="752" y2="126" stroke="#1e1e1e" stroke-width="2"/>

  <!-- Vertical drops to each command box (8 commands) -->
  <!-- validate x=50 -->
  <line x1="50" y1="126" x2="50" y2="148" stroke="#1e1e1e" stroke-width="1.5"/>
  <!-- generate x=148 -->
  <line x1="148" y1="126" x2="148" y2="148" stroke="#1e1e1e" stroke-width="1.5"/>
  <!-- diff x=246 -->
  <line x1="246" y1="126" x2="246" y2="148" stroke="#1e1e1e" stroke-width="1.5"/>
  <!-- timeline x=344 -->
  <line x1="344" y1="126" x2="344" y2="148" stroke="#1e1e1e" stroke-width="1.5"/>
  <!-- docify x=440 -->
  <line x1="440" y1="126" x2="440" y2="148" stroke="#1e1e1e" stroke-width="1.5"/>
  <!-- template x=534 -->
  <line x1="534" y1="126" x2="534" y2="148" stroke="#1e1e1e" stroke-width="1.5"/>
  <!-- init-ai x=626 -->
  <line x1="626" y1="126" x2="626" y2="148" stroke="#1e1e1e" stroke-width="1.5"/>
  <!-- hub x=752 -->
  <line x1="752" y1="126" x2="752" y2="148" stroke="#1e1e1e" stroke-width="1.5"/>

  <!-- === validate === -->
  <rect x="10" y="148" width="80" height="34" rx="5" fill="#ffffff" stroke="#1e1e1e" stroke-width="2"/>
  <text x="50" y="170" font-size="13" text-anchor="middle" font-weight="bold">validate</text>
  <line x1="50" y1="182" x2="50" y2="200" stroke="#1e1e1e" stroke-width="1"/>
  <line x1="18" y1="200" x2="84" y2="200" stroke="#1e1e1e" stroke-width="1"/>
  <!-- 4 flag children -->
  <line x1="18" y1="200" x2="18" y2="215" stroke="#1e1e1e" stroke-width="1"/>
  <line x1="38" y1="200" x2="38" y2="215" stroke="#1e1e1e" stroke-width="1"/>
  <line x1="58" y1="200" x2="58" y2="215" stroke="#1e1e1e" stroke-width="1"/>
  <line x1="79" y1="200" x2="79" y2="215" stroke="#1e1e1e" stroke-width="1"/>
  <rect x="4" y="215" width="28" height="30" rx="3" fill="#ffffff" stroke="#1e1e1e" stroke-width="1"/>
  <text x="18" y="230" font-size="8" text-anchor="middle">-a</text>
  <text x="18" y="240" font-size="8" text-anchor="middle">&lt;arch&gt;</text>
  <rect x="25" y="215" width="28" height="30" rx="3" fill="#ffffff" stroke="#1e1e1e" stroke-width="1"/>
  <text x="39" y="230" font-size="8" text-anchor="middle">-p</text>
  <text x="39" y="240" font-size="8" text-anchor="middle">&lt;pat&gt;</text>
  <rect x="45" y="215" width="30" height="30" rx="3" fill="#ffffff" stroke="#1e1e1e" stroke-width="1"/>
  <text x="60" y="230" font-size="8" text-anchor="middle">-f</text>
  <text x="60" y="240" font-size="8" text-anchor="middle">junit</text>
  <rect x="65" y="215" width="30" height="30" rx="3" fill="#ffffff" stroke="#1e1e1e" stroke-width="1"/>
  <text x="80" y="228" font-size="7" text-anchor="middle">--strict</text>
  <text x="50" y="260" font-size="8" text-anchor="middle" fill="#555" font-style="italic">schema vs pattern</text>

  <!-- === generate === -->
  <rect x="108" y="148" width="80" height="34" rx="5" fill="#ffffff" stroke="#1e1e1e" stroke-width="2"/>
  <text x="148" y="170" font-size="13" text-anchor="middle" font-weight="bold">generate</text>
  <line x1="148" y1="182" x2="148" y2="200" stroke="#1e1e1e" stroke-width="1"/>
  <line x1="120" y1="200" x2="178" y2="200" stroke="#1e1e1e" stroke-width="1"/>
  <line x1="120" y1="200" x2="120" y2="215" stroke="#1e1e1e" stroke-width="1"/>
  <line x1="148" y1="200" x2="148" y2="215" stroke="#1e1e1e" stroke-width="1"/>
  <line x1="178" y1="200" x2="178" y2="215" stroke="#1e1e1e" stroke-width="1"/>
  <rect x="104" y="215" width="34" height="30" rx="3" fill="#ffffff" stroke="#1e1e1e" stroke-width="1"/>
  <text x="121" y="230" font-size="8" text-anchor="middle">-p</text>
  <text x="121" y="240" font-size="8" text-anchor="middle">&lt;pat&gt;</text>
  <rect x="131" y="215" width="34" height="30" rx="3" fill="#ffffff" stroke="#1e1e1e" stroke-width="1"/>
  <text x="148" y="230" font-size="8" text-anchor="middle">-o</text>
  <text x="148" y="240" font-size="8" text-anchor="middle">&lt;file&gt;</text>
  <rect x="161" y="215" width="46" height="30" rx="3" fill="#ffffff" stroke="#1e1e1e" stroke-width="1"/>
  <text x="184" y="228" font-size="7" text-anchor="middle">--option</text>
  <text x="184" y="239" font-size="7" text-anchor="middle">-choices</text>

  <!-- === diff === -->
  <rect x="206" y="148" width="80" height="34" rx="5" fill="#ffffff" stroke="#1e1e1e" stroke-width="2"/>
  <text x="246" y="170" font-size="13" text-anchor="middle" font-weight="bold">diff</text>
  <line x1="246" y1="182" x2="246" y2="200" stroke="#1e1e1e" stroke-width="1"/>
  <line x1="218" y1="200" x2="278" y2="200" stroke="#1e1e1e" stroke-width="1"/>
  <line x1="218" y1="200" x2="218" y2="215" stroke="#1e1e1e" stroke-width="1"/>
  <line x1="238" y1="200" x2="238" y2="215" stroke="#1e1e1e" stroke-width="1"/>
  <line x1="258" y1="200" x2="258" y2="215" stroke="#1e1e1e" stroke-width="1"/>
  <line x1="278" y1="200" x2="278" y2="215" stroke="#1e1e1e" stroke-width="1"/>
  <rect x="206" y="215" width="26" height="30" rx="3" fill="#ffffff" stroke="#1e1e1e" stroke-width="1"/>
  <text x="219" y="233" font-size="9" text-anchor="middle">-a</text>
  <rect x="226" y="215" width="26" height="30" rx="3" fill="#ffffff" stroke="#1e1e1e" stroke-width="1"/>
  <text x="239" y="233" font-size="9" text-anchor="middle">-b</text>
  <rect x="245" y="215" width="40" height="30" rx="3" fill="#ffffff" stroke="#1e1e1e" stroke-width="1"/>
  <text x="265" y="228" font-size="7" text-anchor="middle">-f</text>
  <text x="265" y="239" font-size="7" text-anchor="middle">summary</text>
  <rect x="266" y="215" width="46" height="30" rx="3" fill="#ffffff" stroke="#1e1e1e" stroke-width="1"/>
  <text x="289" y="228" font-size="7" text-anchor="middle">--exit</text>
  <text x="289" y="239" font-size="7" text-anchor="middle">-code</text>
  <text x="246" y="260" font-size="8" text-anchor="middle" fill="#555" font-style="italic">gate on changes</text>

  <!-- === timeline === -->
  <rect x="304" y="148" width="80" height="34" rx="5" fill="#ffffff" stroke="#1e1e1e" stroke-width="2"/>
  <text x="344" y="170" font-size="13" text-anchor="middle" font-weight="bold">timeline</text>
  <line x1="344" y1="182" x2="344" y2="200" stroke="#1e1e1e" stroke-width="1"/>
  <line x1="320" y1="200" x2="370" y2="200" stroke="#1e1e1e" stroke-width="1"/>
  <line x1="320" y1="200" x2="320" y2="215" stroke="#1e1e1e" stroke-width="1"/>
  <line x1="370" y1="200" x2="370" y2="215" stroke="#1e1e1e" stroke-width="1"/>
  <rect x="302" y="215" width="40" height="30" rx="3" fill="#ffffff" stroke="#1e1e1e" stroke-width="1"/>
  <text x="322" y="228" font-size="8" text-anchor="middle">-a</text>
  <text x="322" y="239" font-size="8" text-anchor="middle">&lt;files&gt;</text>
  <rect x="352" y="215" width="40" height="30" rx="3" fill="#ffffff" stroke="#1e1e1e" stroke-width="1"/>
  <text x="372" y="228" font-size="8" text-anchor="middle">-o</text>
  <text x="372" y="239" font-size="8" text-anchor="middle">&lt;file&gt;</text>

  <!-- === docify === -->
  <rect x="400" y="148" width="80" height="34" rx="5" fill="#ffffff" stroke="#1e1e1e" stroke-width="2"/>
  <text x="440" y="170" font-size="13" text-anchor="middle" font-weight="bold">docify</text>
  <line x1="440" y1="182" x2="440" y2="215" stroke="#1e1e1e" stroke-width="1"/>
  <rect x="406" y="215" width="68" height="30" rx="3" fill="#ffffff" stroke="#1e1e1e" stroke-width="1" stroke-dasharray="4,3"/>
  <text x="440" y="228" font-size="9" text-anchor="middle">generates</text>
  <text x="440" y="239" font-size="9" text-anchor="middle">doc site</text>

  <!-- === template === -->
  <rect x="494" y="148" width="80" height="34" rx="5" fill="#ffffff" stroke="#1e1e1e" stroke-width="2"/>
  <text x="534" y="170" font-size="13" text-anchor="middle" font-weight="bold">template</text>
  <line x1="534" y1="182" x2="534" y2="215" stroke="#1e1e1e" stroke-width="1"/>
  <rect x="497" y="215" width="74" height="30" rx="3" fill="#ffffff" stroke="#1e1e1e" stroke-width="1" stroke-dasharray="4,3"/>
  <text x="534" y="228" font-size="9" text-anchor="middle">Handlebars</text>
  <text x="534" y="239" font-size="9" text-anchor="middle">output</text>

  <!-- === init-ai === -->
  <rect x="586" y="148" width="80" height="34" rx="5" fill="#ffffff" stroke="#1e1e1e" stroke-width="2"/>
  <text x="626" y="170" font-size="13" text-anchor="middle" font-weight="bold">init-ai</text>
  <line x1="626" y1="182" x2="626" y2="200" stroke="#1e1e1e" stroke-width="1"/>
  <line x1="600" y1="200" x2="656" y2="200" stroke="#1e1e1e" stroke-width="1"/>
  <line x1="600" y1="200" x2="600" y2="215" stroke="#1e1e1e" stroke-width="1"/>
  <line x1="656" y1="200" x2="656" y2="215" stroke="#1e1e1e" stroke-width="1"/>
  <rect x="568" y="215" width="68" height="38" rx="3" fill="#ffffff" stroke="#1e1e1e" stroke-width="1"/>
  <text x="602" y="228" font-size="8" text-anchor="middle">-p copilot|kiro</text>
  <text x="602" y="239" font-size="8" text-anchor="middle">|claude|codex</text>
  <text x="602" y="250" font-size="8" text-anchor="middle" fill="#777">provider</text>
  <rect x="634" y="215" width="50" height="38" rx="3" fill="#ffffff" stroke="#1e1e1e" stroke-width="1"/>
  <text x="659" y="232" font-size="9" text-anchor="middle">-d</text>
  <text x="659" y="243" font-size="9" text-anchor="middle">&lt;path&gt;</text>

  <!-- === hub (heavy border) === -->
  <rect x="712" y="148" width="80" height="34" rx="5" fill="#ffffff" stroke="#1e1e1e" stroke-width="3"/>
  <text x="752" y="170" font-size="13" text-anchor="middle" font-weight="bold">hub</text>

  <!-- hub sub-command trunk -->
  <line x1="752" y1="182" x2="752" y2="200" stroke="#1e1e1e" stroke-width="1.5"/>
  <line x1="700" y1="200" x2="795" y2="200" stroke="#1e1e1e" stroke-width="1.5"/>
  <line x1="700" y1="200" x2="700" y2="215" stroke="#1e1e1e" stroke-width="1.5"/>
  <line x1="752" y1="200" x2="752" y2="215" stroke="#1e1e1e" stroke-width="1.5"/>
  <line x1="795" y1="200" x2="795" y2="215" stroke="#1e1e1e" stroke-width="1.5"/>

  <!-- hub push -->
  <rect x="668" y="215" width="64" height="28" rx="4" fill="#ffffff" stroke="#1e1e1e" stroke-width="2"/>
  <text x="700" y="233" font-size="12" text-anchor="middle" font-weight="bold">push</text>
  <line x1="700" y1="243" x2="700" y2="258" stroke="#1e1e1e" stroke-width="1"/>
  <rect x="655" y="258" width="92" height="80" rx="3" fill="#ffffff" stroke="#1e1e1e" stroke-width="1" stroke-dasharray="3,3"/>
  <text x="701" y="274" font-size="8" text-anchor="middle">architecture</text>
  <text x="701" y="287" font-size="8" text-anchor="middle">pattern</text>
  <text x="701" y="300" font-size="8" text-anchor="middle">standard</text>
  <text x="701" y="313" font-size="8" text-anchor="middle">control-req</text>
  <text x="701" y="328" font-size="8" text-anchor="middle" fill="#777">resource types</text>

  <!-- hub pull -->
  <rect x="720" y="215" width="64" height="28" rx="4" fill="#ffffff" stroke="#1e1e1e" stroke-width="2"/>
  <text x="752" y="233" font-size="12" text-anchor="middle" font-weight="bold">pull</text>
  <line x1="752" y1="243" x2="752" y2="258" stroke="#1e1e1e" stroke-width="1"/>
  <rect x="720" y="258" width="72" height="68" rx="3" fill="#ffffff" stroke="#1e1e1e" stroke-width="1" stroke-dasharray="3,3"/>
  <text x="756" y="274" font-size="8" text-anchor="middle">architecture</text>
  <text x="756" y="287" font-size="8" text-anchor="middle">pattern</text>
  <text x="756" y="300" font-size="8" text-anchor="middle">standard</text>
  <text x="756" y="315" font-size="8" text-anchor="middle" fill="#777">resource types</text>

  <!-- hub list -->
  <rect x="763" y="215" width="64" height="28" rx="4" fill="#ffffff" stroke="#1e1e1e" stroke-width="2"/>
  <text x="795" y="233" font-size="12" text-anchor="middle" font-weight="bold">list</text>
  <line x1="795" y1="243" x2="795" y2="258" stroke="#1e1e1e" stroke-width="1"/>
  <!-- hub list extends out of canvas bounds; anchor at 760 -->
  <rect x="752" y="258" width="42" height="80" rx="3" fill="#ffffff" stroke="#1e1e1e" stroke-width="1" stroke-dasharray="3,3"/>
  <text x="773" y="272" font-size="7" text-anchor="middle">architectures</text>
  <text x="773" y="284" font-size="7" text-anchor="middle">namespaces</text>
  <text x="773" y="296" font-size="7" text-anchor="middle">patterns</text>
  <text x="773" y="308" font-size="7" text-anchor="middle">standards</text>
  <text x="773" y="328" font-size="7" text-anchor="middle" fill="#777">resources</text>

  <!-- bottom caption -->
  <text x="400" y="745" font-size="14" text-anchor="middle" fill="#757575">Module 3.1 — The CALM CLI command taxonomy with key flags</text>
</svg>
